<svg xmlns="http://www.w3.org/2000/svg" xmlns:xlink="http://www.w3.org/1999/xlink" contentScriptType="text/ecmascript" contentStyleType="text/css" height="35.0" preserveAspectRatio="xMidYMid meet" version="1.0" width="33.0" zoomAndPan="magnify">  <desc>Generated by Symbology Studio</desc>  <defs/>  <g id="root" transform="scale(1.0)">    <path d="M9.61 1.64 C9.11 2.05 8.36 3.12 7.91 4.02 L7.12 5.6 L5.06 5.5 C1.58 5.31 0.56 6.18 0.56 9.4 C0.56 10.94 0.63 11.23 1.11 11.69 C1.42 11.98 1.78 12.23 1.9 12.23 C2.04 12.23 2.33 12.36 2.58 12.53 C3 12.85 2.97 12.91 2.15 14.07 C0.38 16.55 0.1 18.21 1.24 19.46 C2.04 20.39 3.3 20.71 5.49 20.53 L7.18 20.38 L7.77 21.75 C8.08 22.5 8.73 23.55 9.23 24.06 C10.03 24.91 10.25 25 11.28 25 C12.14 25 12.65 24.88 13.19 24.44 C13.61 24.13 14.19 23.8 14.49 23.71 C15.23 23.46 15.52 22.83 15.47 21.55 C15.44 20.94 15.47 20.39 15.52 20.36 C15.58 20.29 16.3 20.32 17.08 20.47 C18.95 20.77 20.78 20.39 21.56 19.55 C22 19.07 22.13 18.69 22.13 17.7 C22.13 16.35 21.7 15.33 20.54 13.86 L19.83 12.98 L20.8 11.72 C22.45 9.53 22.65 7.16 21.3 6.18 C20.91 5.91 20.54 5.7 20.38 5.7 C20.27 5.7 19.86 5.47 19.49 5.18 C19.13 4.89 18.54 4.66 18.16 4.66 C17.8 4.66 17.21 4.89 16.85 5.18 C16.48 5.47 16.05 5.7 15.9 5.7 C15.75 5.7 15.32 5 14.94 4.14 C13.58 1.02 11.44 0 9.61 1.64  Z M12.37 3.05 C12.94 3.6 13.82 5.29 13.82 5.83 C13.82 6.04 13.35 6.41 12.69 6.7 C11.48 7.22 11.5 7.22 9.32 6.41 C8.78 6.22 8.78 6.16 9.15 5.2 C9.94 2.89 11.28 1.97 12.37 3.05  Z M6.66 7.31 C6.72 7.45 6.68 8.04 6.58 8.73 C6.43 9.7 6.22 10.07 5.37 10.85 C4.79 11.32 4.22 11.72 4.08 11.66 C3.94 11.61 3.78 11.19 3.74 10.69 C3.7 10.03 3.48 9.66 2.95 9.28 C2.22 8.73 2.02 7.95 2.53 7.45 C2.84 7.12 6.49 7.04 6.66 7.31  Z M17.39 7.54 C18.1 7.87 18.23 7.87 19.02 7.49 C20.05 7 20.58 7.31 20.58 8.45 C20.58 9.2 19.06 11.73 18.63 11.73 C18.5 11.73 17.93 11.31 17.35 10.78 C16.46 9.94 16.3 9.61 16.16 8.65 C15.99 7 16.13 6.89 17.39 7.54  Z M9.11 8.1 C9.19 8.23 9.03 8.45 8.75 8.61 C8.36 8.82 8.28 8.79 8.28 8.36 C8.28 7.87 8.86 7.68 9.11 8.1  Z M14.54 8.36 C14.54 8.79 14.48 8.82 14.07 8.61 C13.53 8.32 13.64 7.87 14.2 7.87 C14.4 7.87 14.54 8.1 14.54 8.36  Z M12.44 9.58 C14.78 10.79 14.82 10.82 14.74 13.11 L14.66 15.16 L13.06 16.05 L11.41 16.93 L9.79 16.05 L8.15 15.16 L8.08 13.14 C8.03 11.6 8.11 11.02 8.36 10.79 C8.66 10.56 11.19 9.11 11.36 9.08 C11.39 9.08 11.9 9.32 12.44 9.58  Z M6 13.36 C5.74 13.61 5.54 13.2 5.74 12.78 C5.93 12.36 5.93 12.36 6.02 12.78 C6.1 13.02 6.08 13.28 6 13.36  Z M17.11 12.73 C17.19 12.86 17.08 13.15 16.87 13.37 C16.5 13.73 16.48 13.72 16.48 13.11 C16.48 12.45 16.8 12.24 17.11 12.73  Z M6.31 16.04 C6.41 16.28 6.58 16.9 6.66 17.47 C6.77 18.41 6.72 18.55 6.18 18.75 C5.35 19.07 3.59 19.03 2.84 18.69 C1.78 18.21 2.2 16.39 3.76 14.7 L4.24 14.18 L5.18 14.9 C5.7 15.31 6.2 15.82 6.31 16.04  Z M19.8 15.69 C20.85 17.23 20.88 18.32 19.86 18.73 C19.06 19.07 16.61 18.96 16.23 18.58 C16.07 18.41 16.07 17.91 16.21 17.14 C16.38 16.22 16.63 15.78 17.35 15.16 C17.86 14.73 18.44 14.41 18.64 14.44 C18.85 14.48 19.38 15.04 19.8 15.69  Z M8.86 17.44 C9.4 17.64 9.33 18 8.75 18 C8.49 18 8.28 17.85 8.28 17.64 C8.28 17.23 8.32 17.21 8.86 17.44  Z M14.54 17.64 C14.54 17.85 14.33 18 14.07 18 C13.53 18 13.41 17.64 13.9 17.46 C14.4 17.23 14.54 17.3 14.54 17.64  Z M12.86 19.37 C14.02 19.81 14.07 20.15 13.11 20.86 C12.54 21.27 12.37 21.61 12.37 22.19 C12.37 23.71 11.33 24.03 10.31 22.8 C9.73 22.08 8.65 19.95 8.82 19.81 C9.15 19.58 10.94 18.99 11.33 18.99 C11.65 18.97 12.32 19.14 12.86 19.37  Z M10.28 10.65 C9.39 11.03 8.75 12.1 8.75 13.2 C8.75 13.73 8.99 14.19 9.57 14.78 C10.25 15.45 10.6 15.6 11.41 15.6 C12.23 15.6 12.57 15.45 13.24 14.78 C13.82 14.19 14.07 13.73 14.07 13.2 C14.07 12.07 13.41 11.02 12.49 10.62 C11.48 10.23 11.27 10.23 10.28 10.65  Z " fill="#0178af" fill-opacity="1.0" id="Symbol-99f57bb4"/>  </g>
</svg>
