<svg xmlns="http://www.w3.org/2000/svg" 
     xmlns:xlink="http://www.w3.org/1999/xlink" 
     contentScriptType="text/ecmascript" 
     contentStyleType="text/css" 
     width="280" 
     height="90" 
     preserveAspectRatio="xMidYMid meet" 
     version="1.0" 
     zoomAndPan="magnify">  
    <desc>Generated by Symbology Studio</desc>  
    <defs>    
        <linearGradient id="gradient-3bf4376f" 
                        gradientUnits="userSpaceOnUse" 
                        spreadMethod="pad" 
                        x1="1" 
                        x2="77" 
                        y1="1" 
                        y2="77">      
            <stop offset="0%" 
                  style="stop-opacity:1.0; stop-color:rgb(1,120,175);"/>      
            <stop offset="100%" 
                  style="stop-opacity:1.0; stop-color:rgb(255,255,255);"/>    
        </linearGradient>  
    </defs>  
    <g id="root" transform="scale(1.0)">    
        <path id="Ellipse-3bf4376f" 
        fill="url(#gradient-3bf4376f)" 
        d="M80 40 C80 62.1 62.1 80 40 80 C17.91 80 0 62.1 0 40 C0 17.91 17.91 0 40 0 C62.1 0 80 17.91 80 40  Z "/>    
        <path id="Symbol-d3858446" 
              fill="#0178af" 
              fill-opacity="1.0" 
              d="M40.78 14.9 C40.8 14.98 40.8 15.07 40.8 15.14 L40.8 19.61 C40.8 20.39 40.16 21.03 39.39 21.03 L39.1 21.03 C38.32 21.03 37.69 20.39 37.69 19.61 L37.69 15.14 C37.69 15.07 37.69 14.98 37.71 14.91 L37.71 14.91 C34.3 15.14 31.11 16.06 28.23 17.55 L28.23 17.55 C28.28 17.58 28.31 17.64 28.33 17.7 L30.64 21.52 C31.05 22.2 30.82 23.05 30.15 23.46 L29.91 23.62 C29.69 23.74 29.44 23.8 29.19 23.8 C28.71 23.8 28.23 23.56 27.96 23.13 L25.66 19.3 C25.63 19.24 25.62 19.21 25.58 19.15 L25.58 19.15 C23.06 20.89 20.9 23.11 19.21 25.66 L19.21 25.66 C19.25 25.7 19.29 25.71 19.32 25.74 L23.22 27.95 C23.89 28.32 24.13 29.21 23.74 29.88 L23.61 30.13 C23.35 30.58 22.87 30.83 22.38 30.83 C22.13 30.83 21.89 30.79 21.69 30.65 L17.79 28.46 C17.74 28.43 17.7 28.4 17.66 28.37 L17.66 28.37 C16.1 31.56 15.22 35.16 15.22 38.96 L29.96 38.96 C29.96 33.87 34.14 29.74 39.28 29.74 C44.42 29.74 48.6 33.87 48.6 38.96 L63.42 38.96 C63.42 35.21 62.57 31.63 61.03 28.47 L61.03 28.47 C60.94 28.57 60.82 28.65 60.71 28.72 L56.8 30.89 C56.59 31.03 56.35 31.07 56.1 31.07 C55.62 31.07 55.14 30.82 54.87 30.37 L54.73 30.11 C54.35 29.44 54.6 28.55 55.28 28.18 L59.19 25.99 C59.3 25.94 59.42 25.88 59.55 25.86 L59.55 25.86 C57.75 23.1 55.41 20.71 52.66 18.88 L52.66 18.88 C52.62 18.98 52.59 19.08 52.53 19.19 L50.28 23.05 C50.03 23.49 49.55 23.74 49.05 23.74 C48.82 23.74 48.57 23.69 48.35 23.55 L48.1 23.4 C47.42 23.02 47.19 22.14 47.59 21.46 L49.84 17.62 C49.89 17.53 49.96 17.44 50.03 17.37 L50.03 17.37 C47.21 15.97 44.09 15.1 40.78 14.9  Z M12.56 40.73 C11.79 40.73 11.16 41.35 11.16 42.12 L11.16 49.69 C11.16 50.46 11.79 51.09 12.56 51.09 L17.96 51.09 C17.93 50.98 17.9 50.89 17.9 50.8 L17.9 48.94 C17.9 48.37 18.38 47.89 18.97 47.89 L19.68 47.89 C20.27 47.89 20.74 48.37 20.74 48.94 L20.74 50.8 C20.74 50.89 20.72 50.98 20.71 51.09 L24.69 51.09 C24.65 50.98 24.64 50.89 24.64 50.8 L24.64 48.94 C24.64 48.37 25.12 47.89 25.71 47.89 L26.41 47.89 C27 47.89 27.48 48.37 27.48 48.94 L27.48 50.8 C27.48 50.89 27.47 50.98 27.44 51.09 L31.35 51.09 C31.31 50.98 31.3 50.89 31.3 50.8 L31.3 48.94 C31.3 48.37 31.79 47.89 32.37 47.89 L33.07 47.89 C33.66 47.89 34.14 48.37 34.14 48.94 L34.14 50.8 C34.14 50.89 34.14 50.98 34.1 51.09 L38.07 51.09 C38.05 50.98 38.03 50.89 38.03 50.8 L38.03 48.94 C38.03 48.37 38.53 47.89 39.1 47.89 L39.8 47.89 C40.39 47.89 40.87 48.37 40.87 48.94 L40.87 50.8 C40.87 50.89 40.87 50.98 40.84 51.09 L44.32 51.09 C44.28 50.98 44.28 50.89 44.28 50.8 L44.28 48.94 C44.28 48.37 44.75 47.89 45.35 47.89 L46.05 47.89 C46.64 47.89 47.12 48.37 47.12 48.94 L47.12 50.8 C47.12 50.89 47.1 50.98 47.09 51.09 L51.05 51.09 C51.03 50.98 51 50.89 51 50.8 L51 48.94 C51 48.37 51.48 47.89 52.07 47.89 L52.78 47.89 C53.37 47.89 53.85 48.37 53.85 48.94 L53.85 50.8 C53.85 50.89 53.85 50.98 53.8 51.09 L57.71 51.09 C57.69 50.98 57.67 50.89 57.67 50.8 L57.67 48.94 C57.67 48.37 58.14 47.89 58.75 47.89 L59.44 47.89 C60.05 47.89 60.51 48.37 60.51 48.94 L60.51 50.8 C60.51 50.89 60.5 50.98 60.48 51.09 L65.8 51.09 C66.56 51.09 67.17 50.46 67.17 49.69 L67.17 42.12 C67.17 41.35 66.56 40.73 65.8 40.73  Z "/>
        <text id="85f0d6db" 
              fill="#0178af" 
              fill-opacity="1.0" 
              font-family="Serif" 
              font-size="16" 
              x="90" 
              y="60">Say as much as possible</text>
        <text id="fe1f4298" 
              fill="#0178af" 
              fill-opacity="1.0" 
              font-family="Serif" 
              font-size="16" 
              x="90" 
              y="80">with as little as possible</text>
        <path id="Halant-Bold.ttf-eafe88a2" 
              fill="#0178af" 
              fill-opacity="1.0" 
              d="M100.85 28.69 L102.57 28.69 Q107.88 28.69 107.88 23.99 Q107.88 19.29 102.57 19.29 L100.85 19.29 L100.85 28.69  Z M100.85 16.77 L103.65 16.77 Q105.05 16.16 105.95 14.94 Q106.85 13.72 106.85 11.9 Q106.85 10.08 105.61 8.89 Q104.36 7.69 102.29 7.69 L100.85 7.69 L100.85 16.77  Z M102.29 5.21 Q108 5.21 110.71 7.15 Q113.41 9.08 113.41 12.24 Q113.41 15.88 109.85 17.57 Q114.41 19.21 114.41 24 Q114.41 27.49 111.49 29.35 Q108.57 31.21 102.85 31.21 L91.72 31.21 Q91.72 30.88 91.72 30.26 Q91.72 29.65 91.93 28.93 Q93.16 28.72 93.8 28.22 Q94.44 27.72 94.44 26.52 L94.44 7.88 Q93.41 7.44 91.65 7.44 Q91.6 7.16 91.6 6.65 Q91.6 6.13 91.8 5.21 L102.29 5.21  Z M132.88 12.24 Q133.08 12.93 133.08 14.44 Q133.08 15.96 132.65 17.96 Q126.52 17.96 125.88 22.13 L125.88 28.21 Q127.32 28.77 129.32 28.93 Q129.32 29.16 129.32 29.72 Q129.32 30.29 129.16 31.21 L116.96 31.21 Q116.96 30.88 116.96 30.26 Q116.96 29.65 117.16 28.93 Q118.41 28.72 119.05 28.22 Q119.69 27.72 119.69 26.57 L119.69 16.24 Q119.08 16.16 118.39 16.16 Q117.69 16.16 117 16.21 Q117.08 14.8 117.36 14 Q121 12.69 125.32 12.44 Q125.8 15.21 125.88 18.05 Q126.85 15.49 128.71 13.86 Q130.57 12.24 132.88 12.24  Z M143.8 15.21 Q141.29 15.21 140.69 19.57 L143.8 19.32 L145.6 19.24 Q145.57 15.21 143.8 15.21  Z M140.57 21.72 L140.57 21.8 Q140.57 28 145.21 28 Q147.65 28 150.77 26.8 L151.69 28.24 Q148.29 31.72 143.44 31.72 Q140.13 31.72 137.21 29.49 Q135.77 28.41 134.86 26.57 Q133.96 24.72 133.96 22.44 Q133.96 17.8 136.96 15.02 Q139.96 12.24 144.29 12.24 Q147.16 12.24 149.32 13.85 Q151.8 15.65 151.8 20.08 Q151.49 21.05 151 21.72 L140.57 21.72  Z M152.85 14.96 Q152.65 14.13 152.65 13.61 Q152.65 13.08 152.69 12.77 L163.69 12.77 Q163.85 13.36 163.85 14.96 Q162.36 14.96 161.6 15.16 L165.44 28.08 Q165.69 26.69 166.52 24.21 L168.77 17.57 Q169 16.8 169 16.36 Q169 15.93 168.88 15.72 Q168.57 15.16 167.32 14.96 Q167.08 14.16 167.08 13.61 Q167.08 13.05 167.13 12.77 L175.77 12.77 Q175.8 13.88 175.29 14.96 Q173.96 14.96 172.96 15.41 L166.49 31.44 L161.16 31.44 L155.6 17.36 Q155.24 16.24 154.66 15.74 Q154.08 15.24 152.85 14.96  Z M184.24 9.83 Q183.24 10.85 181.78 10.85 Q180.32 10.85 179.28 9.83 Q178.24 8.8 178.24 7.34 Q178.24 5.88 179.28 4.86 Q180.32 3.85 181.78 3.85 Q183.24 3.85 184.24 4.86 Q185.24 5.88 185.24 7.34 Q185.24 8.8 184.24 9.83  Z M187.13 28.93 Q187.13 29.16 187.13 29.72 Q187.13 30.29 186.96 31.21 L175.96 31.21 Q175.96 30.88 175.96 30.26 Q175.96 29.65 176.16 28.93 Q177.41 28.72 178.05 28.22 Q178.69 27.72 178.69 26.57 L178.69 16.21 Q178.08 16.13 177.39 16.13 Q176.69 16.13 176 16.16 Q176.08 14.77 176.36 13.93 Q180.24 12.6 184.88 12.41 L184.88 28.52 Q185.85 28.93 187.13 28.93  Z M197.72 31.65 Q195.24 31.65 193.74 30.15 Q192.24 28.65 192.24 25.72 L192.24 15.88 Q191.16 15.72 189.77 15.72 Q189.72 15.36 189.72 14.84 Q189.72 14.32 189.85 13.72 Q190.69 13.32 192.21 12.93 L197.16 6.57 L198.44 6.93 L198.44 12.8 Q201 12.72 203.16 12.41 Q203.16 14.41 202.77 15.65 L198.44 15.65 L198.49 25.6 Q198.49 26.72 198.86 27.16 Q199.24 27.6 200.26 27.6 Q201.29 27.6 202.69 26.65 L203.77 28 Q201.16 31.65 197.72 31.65  Z M208.69 40.77 L207.8 40.77 Q207.24 38.77 207.24 37.35 Q207.24 35.93 207.32 35.16 L208.65 35.16 Q210.41 35.16 211.41 34.7 Q212.41 34.24 213.16 33.08 L206.6 17.36 Q206.16 16.24 205.62 15.72 Q205.08 15.21 203.85 14.96 Q203.65 14.13 203.65 13.61 Q203.65 13.08 203.69 12.77 L214.69 12.77 Q214.85 13.36 214.85 14.96 Q213.32 14.96 212.6 15.16 L216.08 27.29 Q216.36 25.88 216.93 24.49 L219.77 17.57 Q220.05 16.8 220.05 16.38 Q220.05 15.96 219.93 15.72 Q219.6 15.16 218.32 14.96 Q218.13 14.13 218.13 13.61 Q218.13 13.08 218.16 12.77 L226.29 12.77 Q226.32 13.88 225.8 14.96 Q224.96 15 224 15.32 L214.93 34.96 Q212.29 40.77 208.69 40.77  Z "/>  
    </g>
</svg>
