<?xml version="1.0" encoding="UTF-8" standalone="no"?>
<!-- Created with Inkscape (http://www.inkscape.org/) -->

<svg
   width="280"
   height="90"
   viewBox="0 0 74.083336 23.812502"
   version="1.1"
   id="svg8730"
   inkscape:version="1.1 (c68e22c387, 2021-05-23)"
   sodipodi:docname="Brevity-InkCreate-withfont-texttopath-importpath.svg"
   xmlns:inkscape="http://www.inkscape.org/namespaces/inkscape"
   xmlns:sodipodi="http://sodipodi.sourceforge.net/DTD/sodipodi-0.dtd"
   xmlns:xlink="http://www.w3.org/1999/xlink"
   xmlns="http://www.w3.org/2000/svg"
   xmlns:svg="http://www.w3.org/2000/svg">
  <sodipodi:namedview
     id="namedview8732"
     pagecolor="#ffffff"
     bordercolor="#666666"
     borderopacity="1.0"
     inkscape:pageshadow="2"
     inkscape:pageopacity="0.0"
     inkscape:pagecheckerboard="0"
     inkscape:document-units="mm"
     showgrid="false"
     inkscape:zoom="0.72337262"
     inkscape:cx="140.31496"
     inkscape:cy="322.79353"
     inkscape:window-width="1920"
     inkscape:window-height="1001"
     inkscape:window-x="-9"
     inkscape:window-y="-9"
     inkscape:window-maximized="1"
     inkscape:current-layer="layer1"
     width="230mm"
     units="px" />
  <defs
     id="defs8727">
    <linearGradient
       inkscape:collect="always"
       id="linearGradient9764">
      <stop
         style="stop-color:#0178af;stop-opacity:1;"
         offset="0"
         id="stop9760" />
      <stop
         style="stop-color:#0178af;stop-opacity:0;"
         offset="1"
         id="stop9762" />
    </linearGradient>
    <linearGradient
       inkscape:collect="always"
       xlink:href="#linearGradient9764"
       id="linearGradient9766"
       x1="0.76441211"
       y1="2.8341081"
       x2="42.443382"
       y2="37.710445"
       gradientUnits="userSpaceOnUse"
       gradientTransform="matrix(0.49887766,0,0,0.56735111,-0.3251583,-0.58359203)" />
  </defs>
  <g
     inkscape:label="Layer 1"
     inkscape:groupmode="layer"
     id="layer1">
    <circle
       style="fill:url(#linearGradient9766);fill-opacity:1;stroke-width:0.140762"
       id="path8756"
       cx="10.988067"
       cy="10.622292"
       r="10.583333" />
    <g
       aria-label="Brevity"
       transform="matrix(0.72250441,0,0,0.74741347,3.5764015,0.14754237)"
       id="text15061"
       style="font-weight:bold;font-size:14.1111px;line-height:1.25;font-family:Halant;-inkscape-font-specification:'Halant, Bold';fill:#0178af;stroke-width:0.609414">
      <path
         d="m 31.599239,9.8702463 h 0.606778 q 1.876776,0 1.876776,-1.6509987 0,-1.6651098 -1.876776,-1.6651098 h -0.606778 z m 0,-4.2051078 h 0.987777 q 0.493889,-0.2116665 0.804333,-0.6349995 0.324555,-0.4374441 0.324555,-1.0724437 0,-0.6491106 -0.437444,-1.0724436 -0.437444,-0.423333 -1.171221,-0.423333 h -0.508 z m 0.508,-4.078108 q 2.017887,0 2.963331,0.6914439 0.959555,0.6773328 0.959555,1.7921097 0,1.2841102 -1.255888,1.8767764 1.608665,0.5785551 1.608665,2.2718871 0,1.2276657 -1.03011,1.8908874 -1.03011,0.649111 -3.047998,0.649111 h -3.922885 q 0,-0.112889 0,-0.324556 0,-0.225777 0.07055,-0.4797771 0.437444,-0.070555 0.663222,-0.2398887 0.225777,-0.1834443 0.225777,-0.6067773 V 2.5324742 Q 28.97457,2.3772521 28.353681,2.3772521 q -0.01411,-0.098778 -0.01411,-0.282222 0,-0.1834443 0.07056,-0.5079996 z"
         id="path41788" />
      <path
         d="m 43.057442,4.0705841 q 0.07056,0.2398887 0.07056,0.7761106 0,0.5362218 -0.155222,1.2417768 -2.158999,0 -2.384776,1.4675544 v 2.1448872 q 0.507999,0.1975554 1.213555,0.2539998 0,0.084667 0,0.2822221 0,0.197555 -0.05645,0.522111 h -4.303885 q 0,-0.112889 0,-0.324556 0,-0.225777 0.07055,-0.4797771 0.437444,-0.070555 0.663222,-0.2398887 0.225777,-0.1834443 0.225777,-0.5926662 V 5.4816942 q -0.211666,-0.028222 -0.465666,-0.028222 -0.239889,0 -0.479777,0.014111 0.02822,-0.4938885 0.127,-0.7761105 1.28411,-0.4656664 2.808108,-0.550333 0.169334,0.973666 0.197556,1.9755541 0.338666,-0.9031104 0.987777,-1.4675544 0.663222,-0.5785552 1.481665,-0.5785552 z"
         id="path41790" />
      <path
         d="m 46.796881,5.1148056 q -0.888999,0 -1.100666,1.5381099 l 1.100666,-0.084667 0.635,-0.028222 q -0.01411,-1.4252211 -0.635,-1.4252209 z m -1.142999,2.3001093 v 0.028222 q 0,2.1872205 1.636888,2.1872205 0.860777,0 1.961443,-0.423333 l 0.324555,0.5079996 q -1.199444,1.227666 -2.906887,1.227666 -1.171221,0 -2.201331,-0.790222 -0.508,-0.3809996 -0.832555,-1.0301102 -0.310444,-0.6491106 -0.310444,-1.4534433 0,-1.6368876 1.058332,-2.6105535 1.058333,-0.9877771 2.582331,-0.9877771 1.016,0 1.777999,0.5644441 0.874888,0.6349995 0.874888,2.2013316 -0.112889,0.3386664 -0.282222,0.5785551 z"
         id="path41792" />
      <path
         d="m 49.971861,5.030139 q -0.07056,-0.2963331 -0.07056,-0.4797774 0,-0.1834444 0.01411,-0.2963332 h 3.880553 q 0.05644,0.2116666 0.05644,0.7761106 -0.522111,0 -0.790221,0.070556 l 1.354665,4.5578853 q 0.08467,-0.4938885 0.381,-1.3687767 L 55.58807,5.947361 q 0.08467,-0.2681109 0.08467,-0.423333 0,-0.1552221 -0.04233,-0.2257776 -0.112889,-0.1975554 -0.550333,-0.2681109 -0.08467,-0.282222 -0.08467,-0.4797774 0,-0.1975555 0.01411,-0.2963332 h 3.047998 q 0.01411,0.3951109 -0.169333,0.7761106 -0.465666,0 -0.818444,0.1552221 L 54.783746,10.843912 H 52.906969 L 50.945527,5.876805 Q 50.818527,5.4816942 50.60686,5.312361 50.409305,5.1289167 49.971861,5.030139 Z"
         id="path41794" />
      <path
         d="m 61.288959,2.3490299 q 0,0.5079996 -0.352777,0.8748882 -0.352778,0.3527775 -0.874889,0.3527775 -0.507999,0 -0.874888,-0.3527775 -0.366888,-0.3668886 -0.366888,-0.8748882 0,-0.5221107 0.366888,-0.8748882 0.366889,-0.3668886 0.874888,-0.3668886 0.522111,0 0.874889,0.3668886 0.352777,0.3527775 0.352777,0.8748882 z m 0.663222,7.605883 q 0,0.084667 0,0.2822221 0,0.197555 -0.05645,0.522111 h -3.880552 q 0,-0.112889 0,-0.324556 0,-0.225777 0.07055,-0.4797771 0.437444,-0.070555 0.663222,-0.2398887 0.225778,-0.1834443 0.225778,-0.5926662 V 5.4675831 q -0.211667,-0.028222 -0.465667,-0.028222 -0.239888,0 -0.479777,0.014111 0.02822,-0.4938885 0.127,-0.7902216 1.368777,-0.4656664 3.005664,-0.5362219 V 9.813802 q 0.338667,0.141111 0.790222,0.141111 z"
         id="path41796" />
      <path
         d="m 65.550486,10.914468 q -0.874888,0 -1.41111,-0.522111 Q 63.617265,9.8561352 63.617265,8.8260249 V 5.3546943 q -0.381,-0.056444 -0.874888,-0.056444 -0.01411,-0.1269999 -0.01411,-0.3104442 0,-0.1834443 0.04233,-0.3951108 0.296333,-0.141111 0.832555,-0.2822221 l 1.749776,-2.2436649 0.451556,0.1269999 v 2.0743317 q 0.90311,-0.028222 1.66511,-0.141111 0,0.7055551 -0.141111,1.1429992 h -1.523999 l 0.01411,3.5136639 q 0,0.3951108 0.127,0.5503329 0.141111,0.1552221 0.493888,0.1552221 0.366889,0 0.860777,-0.3386664 l 0.381,0.4797774 q -0.917221,1.28411 -2.130776,1.28411 z"
         id="path41798" />
      <path
         d="m 69.558015,14.131799 h -0.310444 q -0.197555,-0.705555 -0.197555,-1.213555 0,-0.493889 0.02822,-0.761999 h 0.465666 q 0.620889,0 0.973666,-0.169334 0.352778,-0.155222 0.620889,-0.564444 L 68.824238,5.876805 Q 68.669016,5.4816942 68.471461,5.2982499 68.288016,5.1148056 67.850572,5.030139 q -0.07055,-0.2963331 -0.07055,-0.4797774 0,-0.1834444 0.01411,-0.2963332 h 3.880553 q 0.05644,0.2116666 0.05644,0.7761106 -0.536222,0 -0.790222,0.070556 l 1.227666,4.2756633 q 0.09878,-0.4938885 0.296333,-0.987777 L 73.46679,5.9473605 q 0.09878,-0.2681109 0.09878,-0.4092219 0,-0.1552221 -0.04233,-0.2398887 -0.112889,-0.1975554 -0.564444,-0.2681109 -0.07056,-0.2963331 -0.07056,-0.4797774 0,-0.1834444 0.01411,-0.2963332 H 75.7669 Q 75.78101,4.6491393 75.597566,5.030139 75.301233,5.04425 74.962567,5.1571389 l -3.20322,6.9285501 q -0.931333,2.04611 -2.201332,2.04611 z"
         id="path41800" />
    </g>
    <text
       xml:space="preserve"
       style="font-style:normal;font-variant:normal;font-weight:normal;font-stretch:normal;font-size:3.88056px;line-height:1.25;font-family:Halant;-inkscape-font-specification:'Halant, Normal';font-variant-ligatures:normal;font-variant-caps:normal;font-variant-numeric:normal;font-variant-east-asian:normal;stroke-width:0.264583"
       x="23.891502"
       y="15.603386"
       id="text23566"><tspan
         sodipodi:role="line"
         id="tspan23564"
         style="font-style:normal;font-variant:normal;font-weight:normal;font-stretch:normal;font-size:3.88056px;font-family:Halant;-inkscape-font-specification:'Halant, Normal';font-variant-ligatures:normal;font-variant-caps:normal;font-variant-numeric:normal;font-variant-east-asian:normal;fill:#0178af;fill-opacity:1;stroke-width:0.264583"
         x="23.891502"
         y="15.603386">Say as much as possible</tspan></text>
    <text
       xml:space="preserve"
       style="font-style:normal;font-variant:normal;font-weight:normal;font-stretch:normal;font-size:3.88056px;line-height:1.25;font-family:Halant;-inkscape-font-specification:'Halant, Normal';font-variant-ligatures:normal;font-variant-caps:normal;font-variant-numeric:normal;font-variant-east-asian:normal;fill:#0178af;fill-opacity:1;stroke-width:0.264583"
       x="24.218306"
       y="21.089834"
       id="text31059"><tspan
         sodipodi:role="line"
         id="tspan31057"
         style="font-style:normal;font-variant:normal;font-weight:normal;font-stretch:normal;font-size:3.88056px;font-family:Halant;-inkscape-font-specification:'Halant, Normal';font-variant-ligatures:normal;font-variant-caps:normal;font-variant-numeric:normal;font-variant-east-asian:normal;fill:#0178af;fill-opacity:1;stroke-width:0.264583"
         x="24.218306"
         y="21.089834">with as little as possible</tspan></text>
    <path
       d="m 11.39122,4.0296471 c 0.0051,0.02117 0.0051,0.04498 0.0051,0.0635 v 1.182687 c 0,0.206375 -0.17351,0.375709 -0.382268,0.375709 h -0.07859 c -0.211474,0 -0.382269,-0.169334 -0.382269,-0.375709 v -1.182687 c 0,-0.01852 0,-0.04233 0.0051,-0.06085 v 0 c -0.9244981,0.06085 -1.7893501,0.304271 -2.5701577,0.6985 v 0 c 0.013526,0.0079 0.021723,0.02381 0.027052,0.03969 l 0.6262753,1.010708 c 0.1111473,0.179916 0.048775,0.404812 -0.13285,0.513291 l -0.065067,0.04233 c -0.059636,0.03175 -0.1274192,0.04762 -0.1952019,0.04762 -0.1301346,0 -0.2602692,-0.0635 -0.3334725,-0.177271 L 7.2913546,5.1938121 c -0.0082,-0.01587 -0.010862,-0.02381 -0.021723,-0.03969 v 0 C 6.586425,5.6144971 6.0008192,6.2018721 5.542643,6.8765591 v 0 c 0.010862,0.01058 0.021723,0.01323 0.029818,0.02117 l 1.0573488,0.584729 c 0.1816454,0.0979 0.2467127,0.333375 0.1409757,0.510646 l -0.035249,0.06615 c -0.070498,0.119063 -0.2006225,0.185208 -0.3334623,0.185208 -0.067834,0 -0.13285,-0.01058 -0.1870762,-0.04763 L 5.1576594,7.6173951 c -0.013526,-0.0079 -0.024387,-0.01587 -0.035249,-0.02381 v 0 C 4.6994729,8.4376061 4.4608962,9.3901066 4.4608962,10.395523 h 3.9962185 c 0,-1.3467284 1.1332575,-2.4394579 2.5267843,-2.4394579 1.393516,0 2.526773,1.0927295 2.526773,2.4394579 h 4.017912 c 0,-0.9921874 -0.230451,-1.9393959 -0.647968,-2.7754789 v 0 c -0.02439,0.02646 -0.05697,0.04763 -0.08679,0.06615 l -1.060054,0.574146 c -0.05697,0.03704 -0.121999,0.04763 -0.189781,0.04763 -0.130135,0 -0.260269,-0.06615 -0.333462,-0.185209 l -0.03791,-0.06879 c -0.103031,-0.177271 -0.03525,-0.41275 0.149112,-0.510646 l 1.060054,-0.579437 c 0.02982,-0.01323 0.0624,-0.0291 0.09755,-0.0344 v 0 C 15.99133,6.1992381 15.356919,5.5668841 14.61136,5.0826971 v 0 c -0.01086,0.02646 -0.01896,0.05292 -0.03525,0.08202 l -0.610003,1.021291 c -0.06773,0.116417 -0.197907,0.182563 -0.333473,0.182563 -0.0624,0 -0.130135,-0.01323 -0.189771,-0.05027 l -0.06773,-0.03969 C 13.190772,6.1780701 13.12842,5.9452361 13.236862,5.7653201 l 0.610014,-1.016 c 0.01352,-0.02381 0.03258,-0.04762 0.05154,-0.06615 v 0 c -0.76455,-0.370417 -1.610425,-0.600604 -2.50781,-0.653521 z M 3.7403911,10.863834 c -0.2087585,0 -0.3795627,0.164042 -0.3795627,0.367771 V 13.2345 c 0,0.20373 0.1708042,0.37042 0.3795627,0.37042 h 1.4640143 c -0.0082,-0.0291 -0.016292,-0.0529 -0.016292,-0.0767 v -0.49213 c 0,-0.15081 0.1301347,-0.27781 0.2900978,-0.27781 h 0.1924865 c 0.159963,0 0.2873822,0.127 0.2873822,0.27781 v 0.49213 c 0,0.0238 -0.00512,0.0476 -0.0082,0.0767 H 7.028911 c -0.010862,-0.0291 -0.013526,-0.0529 -0.013526,-0.0767 v -0.49213 c 0,-0.15081 0.1301346,-0.27781 0.2900977,-0.27781 H 7.495264 c 0.1599528,0 0.2900874,0.127 0.2900874,0.27781 v 0.49213 c 0,0.0238 -0.00307,0.0476 -0.010862,0.0767 h 1.060054 c -0.010862,-0.0291 -0.013526,-0.0529 -0.013526,-0.0767 v -0.49213 c 0,-0.15081 0.1328397,-0.27781 0.2900876,-0.27781 h 0.1897814 c 0.1599631,0 0.2900977,0.127 0.2900977,0.27781 v 0.49213 c 0,0.0238 0,0.0476 -0.010862,0.0767 h 1.0763259 c -0.0051,-0.0291 -0.01086,-0.0529 -0.01086,-0.0767 v -0.49213 c 0,-0.15081 0.135556,-0.27781 0.290088,-0.27781 h 0.189782 c 0.159963,0 0.290098,0.127 0.290098,0.27781 v 0.49213 c 0,0.0238 0,0.0476 -0.0082,0.0767 h 0.943476 c -0.01086,-0.0291 -0.01086,-0.0529 -0.01086,-0.0767 v -0.49213 c 0,-0.15081 0.12742,-0.27781 0.290088,-0.27781 h 0.189781 c 0.159953,0 0.290088,0.127 0.290088,0.27781 v 0.49213 c 0,0.0238 -0.0051,0.0476 -0.0082,0.0767 h 1.073611 c -0.0051,-0.0291 -0.01353,-0.0529 -0.01353,-0.0767 v -0.49213 c 0,-0.15081 0.130134,-0.27781 0.290098,-0.27781 h 0.192486 c 0.159953,0 0.290087,0.127 0.290087,0.27781 v 0.49213 c 0,0.0238 0,0.0476 -0.01352,0.0767 h 1.060064 c -0.0051,-0.0291 -0.01086,-0.0529 -0.01086,-0.0767 v -0.49213 c 0,-0.15081 0.127419,-0.27781 0.292803,-0.27781 h 0.187066 c 0.165373,0 0.290087,0.127 0.290087,0.27781 v 0.49213 c 0,0.0238 -0.0031,0.0476 -0.0082,0.0767 h 1.442322 c 0.206053,0 0.371427,-0.16669 0.371427,-0.37042 v -2.002895 c 0,-0.203729 -0.165374,-0.367771 -0.371427,-0.367771 z"
       fill="#0178af"
       fill-opacity="1"
       id="Symbol-d3858446"
       style="stroke-width:0.267828" />
  </g>
</svg>
