<svg id="symbologySVG" width="2000px" height="2000px" xmlns:symbology="http:www.symbologysvg.net" xmlns="http://www.w3.org/2000/svg" xmlns:xlink="http://www.w3.org/1999/xlink" contentScriptType="text/ecmascript" contentStyleType="text/css" preserveAspectRatio="xMidYMid meet" version="1.0" zoomAndPan="magnify">  <desc>
    Generated by SVG SymbologyDimensions :: Width : 262.0 - Height : 401.0Scale 
    Precedence :: 1) URL Path 2) URL Param 3) Fit BoundsURL Path Scale : 1.0URL 
    Param - fitWidth : 0 - fitHeight : 0Fit Bounds :: Shrink : true - Expand : 
    false - Width : 800 - Height : 600
  </desc>  <defs id="defs"/>
    <g data-scale="1.0" id="root" transform="scale(1.0) ">        <path d="M240.87 0 C238.67 0 236.51 0.21 234.65 0.42 L234.65 0.42 C222.12 0.92 204.93 4.77 186.78 11.73 C157.78 22.8 135.92 38.23 133.23 48.66 L133.23 48.66 L127.52 57.8 L126.69 58.23 L126.69 58.23 C124.44 60.51 119.67 63.44 113.91 65.99 C111.49 67.06 109.2 67.99 107.07 68.63 L107.07 68.63 L106.14 69.14 L106.14 69.14 C105.7 69.17 105.2 69.24 104.75 69.37 L104.75 69.37 C102.77 69.88 101.06 70.2 99.7 70.27 L99.7 70.27 L75.32 75.03 C64.02 77.23 55.37 82.38 55.21 86.88 L55.21 86.88 C55.1 87.56 55.14 88.2 55.37 88.92 L58.94 99.38 L58.94 99.38 C59.55 100.45 60 101.7 60.25 103.14 L60.25 103.14 L60.64 104.31 L60.64 104.31 L60.44 104.75 L60.44 104.75 C60.48 105.12 60.48 105.46 60.48 105.78 C60.48 110.59 58.39 114.49 55.66 114.99 L55.66 114.99 L42.57 121.67 C40.03 122.99 38.75 125.81 39.39 128.53 L39.39 128.53 L38.37 135.87 L38.37 135.87 L32.44 136.89 L32.44 136.89 C32.14 136.89 31.88 136.95 31.6 137.03 L31.6 137.03 L30.56 137.25 C29.12 137.48 28.13 138.86 28.41 140.37 L28.45 140.62 L28.45 140.62 L24.87 153 L24.87 153 L6.77 168.78 C4.97 170.31 3.72 172.15 3.03 173.98 L3.03 173.98 C0.11 179.47 0.94 186.42 5.58 191.03 L85.46 270.9 L85.46 270.9 L85.85 271.81 L85.85 271.81 C87.56 273.93 89.24 276.9 90.74 280.21 C92.2 283.56 93.27 286.78 93.74 289.46 L93.74 289.46 L94.35 290.8 L94.35 290.8 C94.32 291.17 94.32 291.49 94.32 291.83 L94.32 304.92 C94.32 314.37 101.95 322 111.42 322 L239.06 322 C248.5 322 256.2 314.37 256.2 304.92 L256.2 291.83 C256.2 282.96 249.39 275.61 240.76 274.8 L240.76 274.8 L233.56 282.21 C230.62 285.3 226.64 286.87 222.7 286.87 C218.93 286.87 215.14 285.43 212.17 282.62 L210.28 280.77 C208.83 279.4 207.76 277.83 207 276.18 L207 276.18 C206.84 275.93 206.64 275.61 206.48 275.31 L202.97 269.52 C200.17 264.86 201.72 258.74 206.37 255.97 L216.62 249.78 L216.62 249.78 L216.56 249.75 L216.56 249.75 C217.37 249.14 217.78 248.5 217.64 247.95 C217.64 247.83 217.59 247.7 217.56 247.59 L217.56 247.59 C217.56 247.59 217.56 247.56 217.56 247.56 C217.9 246.75 216.14 244.92 212.92 242.84 L212.92 242.84 C206.37 240.12 198.56 236.48 190.31 232.04 C171.92 222.28 157.67 212.37 155.76 208.25 L155.76 208.25 C155.37 207.92 155.03 207.64 154.79 207.18 C152.76 204.2 154.79 199.29 159.34 196.23 L169 189.73 L169 189.73 C172.79 185.84 173.03 179.62 169.28 175.5 L168.12 174.12 C166.06 171.87 163.23 170.7 160.43 170.7 C157.95 170.7 155.48 171.58 153.48 173.4 L153.18 173.64 L153.18 173.64 L146.39 184.06 C145.08 186.12 142.81 187.28 140.53 187.28 C139.5 187.28 138.47 187.06 137.48 186.58 L137.48 186.58 C136.58 186.12 135.53 185.54 134.54 184.67 L134.54 184.67 L133.67 184.17 C132.58 183.42 131.75 182.45 131.23 181.37 L131.23 181.37 C128.75 178.43 126.34 174.4 124.31 169.73 C123.34 167.45 122.59 165.2 122.02 163 L122.02 163 C121.88 162.78 121.8 162.5 121.73 162.26 L119.77 155.31 C118.34 150.42 121.14 145.29 126.1 143.84 L137.83 140.53 L137.83 140.53 C145.95 137.83 151.58 134.39 151 132.03 C150.93 131.97 150.93 131.84 150.84 131.67 L150.84 131.67 C150.78 131.23 150.54 130.81 150.2 130.29 L150.2 130.29 L146.45 127.52 L146.45 127.52 C146.39 127.42 146.33 127.42 146.23 127.37 L146.23 127.37 L146.23 127.3 L143.17 125.02 C142.89 124.78 142.65 124.59 142.5 124.31 L142.5 124.31 C142.31 124.2 142.14 124.07 141.98 123.99 C137.7 120.5 138.98 111.91 144.78 104.75 C148.12 100.53 152.39 97.81 156.12 96.87 L156.12 96.87 C157.37 96.32 158.7 96.03 159.95 96.03 C163.29 96.03 166.59 97.89 168.2 101.09 L169.89 104.46 L170.25 104.17 L170.25 104.17 C170.31 104.66 170.39 105.17 170.48 105.63 L170.48 105.63 L172.22 109 L172.22 109 C172.5 109.24 172.79 109.37 173.09 109.49 C173.31 109.59 173.64 109.66 173.92 109.66 C178.37 109.66 185.25 99.63 189.92 86.2 C190.09 85.7 190.28 85.17 190.45 84.7 L190.45 84.7 L191.09 84.06 L191.09 84.06 C197.75 68.63 204.51 56.46 209.86 50.14 L209.86 50.14 C210.64 48.92 211.67 47.85 212.81 47.05 L212.81 47.05 C214.14 46 215.37 45.35 216.39 45.35 C216.5 45.35 216.56 45.35 216.72 45.41 L216.72 45.41 C217.42 45.21 218.23 45.16 218.97 45.16 C223.73 45.16 227.76 48.14 229.31 52.44 L229.31 52.44 C229.4 52.44 229.5 52.46 229.53 52.46 L229.53 52.46 C231.14 56.14 234.81 58.64 239.06 58.64 C244.79 58.64 249.43 54.05 249.43 48.28 C249.43 43.96 246.79 40.25 243.09 38.75 L243.09 38.75 C235.87 37.39 230.78 34.21 231.01 30.86 C231.01 30.24 231.28 29.61 231.68 29.08 L231.68 29.08 C233.11 25.61 237.67 20.04 243.76 14.57 C248.04 10.7 252.26 7.64 255.62 5.74 L255.62 5.74 C256 5.35 256.2 4.97 256.2 4.56 C256.2 2.03 249.37 0 240.87 0 Z " fill="#0178af" fill-opacity="1.0" id="el8e455e32" stroke="#ffffff" stroke-opacity="1.0" stroke-width="0" symbology:group="0" symbology:type="ShapedSymbol"/>
        <path d="M77.73 332.38 C75.63 330.27 72.2 330.28 70.09 332.38 C69.16 333.32 68.63 334.52 68.53 335.74 L68.61 336.85 C68.87 337.82 68.54 338.87 67.71 339.45 C66.81 340.09 65.59 339.96 64.73 339.22 L64.45 338.94 C64.43 338.92 64.4 338.89 64.38 338.86 L64.38 338.86 L64.38 338.86 L56.58 331.06 C55.76 330.24 54.41 330.24 53.59 331.06 L46.01 338.65 L46.02 338.66 L46.02 338.66 C46 338.68 45.96 338.71 45.93 338.73 L45.93 338.73 L45.65 339 L45.66 339.01 C44.92 339.87 44.8 341.1 45.43 341.99 C45.51 342.11 45.59 342.21 45.69 342.31 C46.28 342.9 47.18 343.12 48.03 342.9 L49.14 342.81 C50.36 342.92 51.56 343.44 52.5 344.38 C54.6 346.48 54.6 349.9 52.49 352.01 C50.38 354.11 46.97 354.11 44.87 352.01 C43.93 351.07 43.41 349.87 43.3 348.65 L43.39 347.55 C43.61 346.69 43.4 345.78 42.8 345.19 C42.7 345.09 42.6 345.02 42.49 344.94 C41.59 344.31 40.36 344.43 39.49 345.16 L39.49 345.16 L39.22 345.44 L39.22 345.44 C39.22 345.45 39.2 345.47 39.2 345.49 L39.18 345.47 L31.13 353.53 C30.31 354.35 30.32 355.68 31.14 356.5 L38.94 364.3 L38.94 364.3 L38.94 364.3 C38.97 364.32 39 364.35 39.02 364.37 L39.29 364.65 C40.16 365.4 41.37 365.53 42.27 364.88 C43.11 364.3 43.42 363.26 43.17 362.29 L43.09 361.18 C43.2 359.95 43.71 358.76 44.66 357.81 C46.77 355.71 50.18 355.71 52.29 357.82 C54.4 359.93 54.4 363.33 52.29 365.44 C51.34 366.39 50.15 366.91 48.93 367.01 L47.82 366.94 C46.84 366.68 45.79 366.99 45.21 367.82 C44.58 368.74 44.72 369.96 45.45 370.81 L45.72 371.08 C45.74 371.09 45.75 371.11 45.76 371.12 L45.76 371.12 L53.61 378.96 C54.43 379.78 55.75 379.79 56.57 378.97 L64.62 370.91 L64.62 370.91 C64.64 370.9 64.65 370.89 64.66 370.88 L64.66 370.88 L64.93 370.6 L64.93 370.6 C65.8 369.87 67.01 369.74 67.93 370.37 C68.04 370.46 68.14 370.53 68.23 370.62 C68.83 371.22 69.04 372.12 68.82 372.98 L68.74 374.08 C68.84 375.31 69.36 376.5 70.3 377.44 C72.42 379.56 75.82 379.55 77.92 377.44 C80.03 375.33 80.05 371.93 77.93 369.81 C76.99 368.87 75.8 368.36 74.57 368.26 L73.47 368.33 C72.61 368.55 71.72 368.33 71.11 367.73 C71.02 367.64 70.94 367.55 70.87 367.43 C70.22 366.53 70.36 365.31 71.09 364.44 L71.09 364.44 L71.37 364.17 L71.37 364.17 C71.39 364.15 71.43 364.11 71.46 364.11 L71.46 364.11 L71.45 364.09 L79.03 356.5 C79.85 355.68 79.86 354.35 79.04 353.53 L71.2 345.69 L71.2 345.69 C71.19 345.67 71.17 345.66 71.16 345.64 L70.89 345.37 C70.15 344.53 70.02 343.3 70.65 342.39 C71.23 341.56 72.28 341.24 73.26 341.5 L74.36 341.58 C75.58 341.47 76.79 340.95 77.72 340.01 C79.83 337.91 79.84 334.48 77.73 332.38 Z " fill="#0178af" fill-opacity="1.0" id="el25786994" stroke="#ffffff" stroke-opacity="1.0" stroke-width="0" symbology:group="0" symbology:type="ShapedSymbol"/>
        <path d="M108.16 346.68 Q108.16 349.58 105.9 351.3 Q103.65 353.02 100.55 353.02 Q98.38 353.02 94.11 352.02 Q94.08 351.32 94.08 349.78 Q94.08 348.24 94.38 345.49 Q95.3 345.49 96.52 345.69 Q96.52 345.82 96.52 345.97 Q96.52 350.65 100.71 350.65 Q102.08 350.65 102.86 350.05 Q103.65 349.46 103.65 348.36 Q103.65 347.25 102.94 346.39 Q102.24 345.52 101.17 344.98 Q100.1 344.44 98.85 343.74 Q97.6 343.04 96.53 342.28 Q95.46 341.52 94.75 340.21 Q94.05 338.9 94.05 337.18 Q94.05 334.4 96.08 332.86 Q98.11 331.32 101 331.32 Q103.88 331.32 107.08 332.24 Q107.08 334.65 106.63 337.85 Q105.77 337.85 104.96 337.75 Q104.4 333.55 101.32 333.55 Q100.04 333.55 99.17 334.16 Q98.3 334.77 98.3 335.83 Q98.3 336.88 99.04 337.73 Q99.79 338.58 100.87 339.11 Q101.96 339.63 103.24 340.33 Q104.52 341.02 105.61 341.74 Q106.69 342.46 107.43 343.74 Q108.16 345.02 108.16 346.68 Z M113.75 360.21 L113.05 360.21 Q112.6 358.61 112.6 357.48 Q112.6 356.35 112.66 355.74 L113.72 355.74 Q115.13 355.74 115.93 355.36 Q116.72 354.99 117.33 354.07 L112.08 341.49 Q111.74 340.6 111.3 340.18 Q110.86 339.77 109.88 339.57 Q109.72 338.9 109.72 338.48 Q109.72 338.07 109.75 337.82 L118.55 337.82 Q118.68 338.29 118.68 339.57 Q117.46 339.57 116.88 339.74 L119.66 349.43 Q119.9 348.3 120.35 347.19 L122.61 341.65 Q122.83 341.05 122.83 340.72 Q122.83 340.38 122.74 340.18 Q122.49 339.74 121.46 339.57 Q121.3 338.9 121.3 338.48 Q121.3 338.07 121.33 337.82 L127.83 337.82 Q127.86 338.71 127.44 339.57 Q126.77 339.6 126 339.86 L118.74 355.57 Q116.63 360.21 113.75 360.21 Z M154.79 342.46 L154.79 350.4 Q156.07 350.74 156.9 350.74 Q156.9 350.93 156.9 351.4 Q156.9 351.86 156.74 352.57 L148.07 352.57 Q148.04 352.3 148.04 351.86 Q148.04 351.41 148.19 350.74 Q149.02 350.58 149.4 350.2 Q149.79 349.82 149.79 348.85 L149.79 343.1 Q149.79 340.6 147.74 340.6 Q145.91 340.6 144.83 343.47 L144.83 350.43 Q145.6 350.74 146.65 350.74 Q146.65 350.93 146.65 351.4 Q146.65 351.86 146.49 352.57 L138.15 352.57 Q138.11 352.3 138.11 351.86 Q138.11 351.41 138.27 350.74 Q139.1 350.58 139.48 350.2 Q139.86 349.82 139.86 348.85 L139.86 343.1 Q139.86 341.85 139.29 341.22 Q138.72 340.6 137.79 340.6 Q135.93 340.6 134.91 343.47 L134.91 350.43 Q135.68 350.74 136.71 350.74 Q136.71 350.93 136.71 351.38 Q136.71 351.83 136.57 352.57 L127.77 352.57 Q127.77 352.3 127.77 351.81 Q127.77 351.32 127.93 350.74 Q128.93 350.58 129.43 350.18 Q129.94 349.79 129.94 348.85 L129.94 340.6 Q129.47 340.54 128.91 340.54 Q128.35 340.54 127.8 340.57 Q127.86 339.44 128.1 338.8 Q131 337.75 134.46 337.55 Q134.75 339.13 134.85 340.44 Q136.38 337.4 139.86 337.4 Q141.63 337.4 142.9 338.26 Q144.16 339.13 144.6 340.72 Q146.15 337.4 149.79 337.4 Q152.04 337.4 153.41 338.74 Q154.79 340.08 154.79 342.46 Z M164.91 350.29 Q165.79 350.74 167 350.74 Q168.21 350.74 169.11 349.35 Q170 347.96 170 345.11 Q170 342.25 169.21 341.18 Q168.41 340.11 167.45 340.11 Q166.49 340.11 165.8 340.79 Q165.11 341.46 164.91 342.68 L164.91 350.29 Z M164.91 339.41 Q166.29 337.4 168.94 337.4 Q171.6 337.4 173.46 339.44 Q175.32 341.49 175.32 345.08 Q175.32 348.66 172.84 350.79 Q170.36 352.91 166.74 352.91 Q164.24 352.91 162.32 351.41 Q161.36 352.41 160.11 352.88 L159.38 352.15 Q159.96 350.55 159.96 348.57 L159.96 332.57 Q159.6 332.5 159.01 332.5 Q158.43 332.5 157.82 332.54 Q157.88 331.35 158.13 330.74 Q161.21 329.65 164.91 329.52 L164.91 339.41 Z M187.55 345.94 Q187.55 339.6 184.65 339.6 Q182.05 339.6 182.05 344.47 Q182.05 344.82 182.05 345.18 Q182.27 350.71 185.04 350.71 Q186.44 350.71 187 349.47 Q187.55 348.24 187.55 345.94 Z M190.65 339.36 Q192.86 341.33 192.86 345.15 Q192.86 348.97 190.63 350.94 Q188.4 352.91 184.81 352.91 Q181.22 352.91 179 350.94 Q176.77 348.97 176.77 345.15 Q176.77 341.33 179.01 339.36 Q181.25 337.4 184.84 337.4 Q188.43 337.4 190.65 339.36 Z M203.71 350.74 Q203.71 350.93 203.71 351.38 Q203.71 351.83 203.57 352.57 L194.77 352.57 Q194.77 352.3 194.77 351.81 Q194.77 351.32 194.93 350.74 Q195.93 350.58 196.43 350.18 Q196.94 349.79 196.94 348.85 L196.94 332.57 Q196.6 332.5 196.02 332.5 Q195.44 332.5 194.8 332.54 Q194.86 331.38 195.1 330.74 Q198.16 329.65 201.91 329.52 L201.91 350.43 Q202.68 350.74 203.71 350.74 Z M216.55 345.94 Q216.55 339.6 213.65 339.6 Q211.05 339.6 211.05 344.47 Q211.05 344.82 211.05 345.18 Q211.27 350.71 214.04 350.71 Q215.44 350.71 216 349.47 Q216.55 348.24 216.55 345.94 Z M219.65 339.36 Q221.86 341.33 221.86 345.15 Q221.86 348.97 219.63 350.94 Q217.4 352.91 213.81 352.91 Q210.22 352.91 208 350.94 Q205.77 348.97 205.77 345.15 Q205.77 341.33 208.01 339.36 Q210.25 337.4 213.84 337.4 Q217.43 337.4 219.65 339.36 Z M229.79 341.94 Q229.79 345.79 231.55 345.79 Q233.08 345.79 233.05 342.43 Q232.96 339.1 231.29 339.1 Q229.79 339.1 229.79 341.94 Z M235 353.18 L228.93 353.18 Q228.54 353.18 227.83 353.11 Q227.29 353.85 227.29 354.71 Q227.29 356.82 231.52 356.82 Q233.85 356.82 235.15 356.08 Q236.44 355.35 236.44 354.4 Q236.44 353.18 235 353.18 Z M228.93 349.36 L235.25 349.36 Q239.49 349.36 239.49 352.79 Q239.49 355.83 236.75 358.23 Q234.02 360.63 229.94 360.63 Q227.16 360.63 225.42 359.46 Q223.68 358.29 223.68 356.11 Q223.68 353.94 226.15 352.57 Q224.63 351.66 224.63 349.79 Q224.63 348.66 225.27 347.79 Q225.91 346.93 227 346.46 Q224.5 345.05 224.5 342.57 Q224.5 340.08 226.46 338.74 Q228.41 337.4 231.25 337.4 Q234.08 337.4 235.86 338.46 Q237.66 336.91 240.63 336.91 Q240.71 337.18 240.71 337.73 Q240.71 338.29 240.54 339.44 L237.44 339.83 Q238.27 340.91 238.27 342.43 Q238.27 344.75 236.33 346.13 Q234.4 347.5 231.43 347.5 Q229.85 347.5 228.54 347.13 Q227.68 347.57 227.68 348.35 Q227.68 348.79 228.03 349.08 Q228.38 349.36 228.93 349.36 Z M243.75 360.21 L243.05 360.21 Q242.6 358.61 242.6 357.48 Q242.6 356.35 242.66 355.74 L243.72 355.74 Q245.13 355.74 245.93 355.36 Q246.72 354.99 247.33 354.07 L242.08 341.49 Q241.74 340.6 241.3 340.18 Q240.86 339.77 239.88 339.57 Q239.72 338.9 239.72 338.48 Q239.72 338.07 239.75 337.82 L248.55 337.82 Q248.68 338.29 248.68 339.57 Q247.46 339.57 246.88 339.74 L249.66 349.43 Q249.9 348.3 250.35 347.19 L252.61 341.65 Q252.83 341.05 252.83 340.72 Q252.83 340.38 252.74 340.18 Q252.49 339.74 251.46 339.57 Q251.3 338.9 251.3 338.48 Q251.3 338.07 251.33 337.82 L257.83 337.82 Q257.86 338.71 257.44 339.57 Q256.77 339.6 256 339.86 L248.74 355.57 Q246.63 360.21 243.75 360.21 Z" fill="#0178af" fill-opacity="1.0" id="elf3bfb0cb" stroke="#ffffff" stroke-opacity="1.0" stroke-width="0" symbology:group="0" symbology:type="Halant-Bold.ttf"/>
        <text fill="#0178af" fill-opacity="1.0" font-family="serif" font-size="17" font-weight="bold" id="el73b4e16b" symbology:group="0" symbology:type="PlainText" x="92" y="378">Visualize Your Domain</text>  </g>
</svg>
