<svg id="symbologySVG" width="100px" height="100px" xmlns:symbology="http:www.symbologysvg.net" xmlns="http://www.w3.org/2000/svg" xmlns:xlink="http://www.w3.org/1999/xlink" contentScriptType="text/ecmascript" contentStyleType="text/css" preserveAspectRatio="xMidYMid meet" version="1.0" zoomAndPan="magnify">  
	<desc></desc>  <defs id="defs"/>
    <g data-scale="1.0" id="root" transform="scale(1.0) ">        
		<path d="M74.81 0 C74.13 0 73.45 0.06 72.88 0.13 L72.88 0.13 C68.99 0.29 63.64 1.49 58 3.65 C49 7.08 42.21 11.87 41.37 15.11 L41.37 15.11 L39.6 17.96 L39.35 18.08 L39.35 18.08 C38.64 18.8 37.16 19.71 35.37 20.49 C34.62 20.82 33.91 21.12 33.25 21.31 L33.25 21.31 L32.96 21.47 L32.96 21.47 C32.82 21.48 32.67 21.5 32.53 21.55 L32.53 21.55 C31.91 21.71 31.38 21.8 30.96 21.82 L30.96 21.82 L23.39 23.3 C19.88 23.98 17.2 25.58 17.14 26.98 L17.14 26.98 C17.12 27.2 17.13 27.39 17.2 27.62 L18.3 30.87 L18.3 30.87 C18.49 31.2 18.63 31.58 18.71 32.03 L18.71 32.03 L18.83 32.39 L18.83 32.39 L18.78 32.53 L18.78 32.53 C18.79 32.64 18.79 32.75 18.79 32.85 C18.79 34.35 18.13 35.55 17.29 35.71 L17.29 35.71 L13.23 37.78 C12.44 38.19 12.03 39.07 12.23 39.91 L12.23 39.91 L11.91 42.19 L11.91 42.19 L10.07 42.51 L10.07 42.51 C9.98 42.51 9.9 42.53 9.82 42.55 L9.82 42.55 L9.49 42.62 C9.04 42.69 8.73 43.12 8.82 43.6 L8.83 43.67 L8.83 43.67 L7.72 47.51 L7.72 47.51 L2.1 52.41 C1.54 52.89 1.15 53.46 0.94 54.03 L0.94 54.03 C0.03 55.73 0.29 57.89 1.74 59.32 L26.55 84.13 L26.55 84.13 L26.66 84.42 L26.66 84.42 C27.2 85.07 27.71 85.99 28.19 87.02 C28.63 88.06 28.96 89.06 29.12 89.89 L29.12 89.89 L29.3 90.31 L29.3 90.31 C29.3 90.42 29.3 90.52 29.3 90.63 L29.3 94.7 C29.3 97.63 31.66 100 34.6 100 L74.24 100 C77.17 100 79.56 97.63 79.56 94.7 L79.56 90.63 C79.56 87.88 77.45 85.59 74.77 85.34 L74.77 85.34 L72.53 87.64 C71.63 88.6 70.38 89.09 69.17 89.09 C67.99 89.09 66.81 88.64 65.89 87.77 L65.31 87.2 C64.85 86.77 64.52 86.28 64.28 85.77 L64.28 85.77 C64.24 85.7 64.17 85.59 64.13 85.5 L63.03 83.7 C62.16 82.25 62.64 80.35 64.09 79.49 L67.27 77.57 L67.27 77.57 L67.25 77.56 L67.25 77.56 C67.5 77.38 67.63 77.17 67.59 77 C67.59 76.96 67.57 76.92 67.56 76.89 L67.56 76.89 C67.56 76.89 67.56 76.88 67.56 76.88 C67.67 76.63 67.13 76.06 66.13 75.42 L66.13 75.42 C64.09 74.57 61.66 73.45 59.1 72.06 C53.39 69.03 48.96 65.95 48.37 64.67 L48.37 64.67 C48.25 64.57 48.14 64.49 48.07 64.34 C47.44 63.41 48.07 61.89 49.48 60.94 L52.48 58.92 L52.48 58.92 C53.66 57.71 53.73 55.78 52.57 54.5 L52.21 54.07 C51.57 53.37 50.69 53.01 49.82 53.01 C49.05 53.01 48.28 53.28 47.66 53.85 L47.57 53.92 L47.57 53.92 L45.46 57.16 C45.05 57.8 44.35 58.16 43.64 58.16 C43.32 58.16 43 58.1 42.69 57.94 L42.69 57.94 C42.41 57.8 42.1 57.62 41.78 57.35 L41.78 57.35 L41.51 57.19 C41.17 56.96 40.91 56.66 40.75 56.32 L40.75 56.32 C39.98 55.41 39.23 54.16 38.6 52.71 C38.3 52 38.07 51.3 37.89 50.62 L37.89 50.62 C37.85 50.55 37.82 50.46 37.8 50.39 L37.19 48.23 C36.75 46.71 37.62 45.12 39.16 44.67 L42.8 43.64 L42.8 43.64 C45.32 42.8 47.07 41.73 46.89 41 C46.87 40.98 46.87 40.94 46.85 40.89 L46.85 40.89 C46.82 40.75 46.75 40.62 46.64 40.46 L46.64 40.46 L45.48 39.6 L45.48 39.6 C45.46 39.57 45.44 39.57 45.41 39.55 L45.41 39.55 L45.41 39.53 L44.46 38.82 C44.37 38.75 44.3 38.69 44.25 38.6 L44.25 38.6 C44.19 38.57 44.14 38.53 44.1 38.5 C42.76 37.42 43.16 34.75 44.96 32.53 C46 31.22 47.32 30.38 48.48 30.08 L48.48 30.08 C48.87 29.91 49.28 29.82 49.67 29.82 C50.71 29.82 51.73 30.4 52.23 31.39 L52.76 32.44 L52.87 32.35 L52.87 32.35 C52.89 32.5 52.91 32.66 52.94 32.8 L52.94 32.8 L53.48 33.85 L53.48 33.85 C53.57 33.92 53.66 33.96 53.75 34 C53.82 34.03 53.92 34.05 54.01 34.05 C55.39 34.05 57.53 30.95 58.98 26.78 C59.03 26.62 59.1 26.46 59.14 26.3 L59.14 26.3 L59.35 26.11 L59.35 26.11 C61.41 21.31 63.51 17.54 65.17 15.57 L65.17 15.57 C65.42 15.19 65.74 14.86 66.09 14.61 L66.09 14.61 C66.5 14.28 66.88 14.08 67.2 14.08 C67.24 14.08 67.25 14.08 67.31 14.11 L67.31 14.11 C67.52 14.04 67.77 14.03 68 14.03 C69.49 14.03 70.74 14.95 71.21 16.29 L71.21 16.29 C71.24 16.29 71.27 16.3 71.28 16.3 L71.28 16.3 C71.78 17.44 72.92 18.21 74.24 18.21 C76.02 18.21 77.46 16.79 77.46 14.99 C77.46 13.65 76.64 12.5 75.49 12.03 L75.49 12.03 C73.25 11.61 71.67 10.62 71.74 9.58 C71.74 9.4 71.82 9.19 71.95 9.03 L71.95 9.03 C72.39 7.95 73.81 6.22 75.7 4.52 C77.03 3.32 78.34 2.37 79.38 1.78 L79.38 1.78 C79.5 1.66 79.56 1.54 79.56 1.41 C79.56 0.63 77.45 0 74.81 0 Z " fill="#0178af" fill-opacity="1.0" id="el19e8ac89" stroke="#ffffff" stroke-opacity="1.0" stroke-width="0" symbology:group="0" symbology:type="ShapedSymbol"/>
    </g>
</svg>
