<svg id="symbologySVG" width="500px" height="100px" xmlns:symbology="http:www.symbologysvg.net" xmlns="http://www.w3.org/2000/svg" xmlns:xlink="http://www.w3.org/1999/xlink" contentScriptType="text/ecmascript" contentStyleType="text/css" preserveAspectRatio="xMidYMid meet" version="1.0" zoomAndPan="magnify">  
	<desc></desc>  <defs id="defs"/>
    <g data-scale="1.0" id="root" transform="scale(1.0) ">        <path d="M96.45 4.74 C92.24 0.53 85.39 0.54 81.17 4.75 C79.31 6.62 78.26 9.02 78.05 11.48 L78.21 13.67 C78.72 15.63 78.07 17.73 76.42 18.88 C74.61 20.17 72.16 19.91 70.45 18.43 L69.9 17.87 C69.85 17.82 69.8 17.76 69.75 17.71 L69.75 17.7 L69.74 17.71 L54.13 2.11 C52.5 0.47 49.83 0.47 48.19 2.11 L33.01 17.29 L33.03 17.31 L33.03 17.31 C32.98 17.35 32.91 17.41 32.85 17.45 L32.85 17.45 L32.31 17.99 L32.31 18 C30.83 19.73 30.58 22.18 31.86 23.98 C32 24.21 32.17 24.39 32.36 24.58 C33.56 25.78 35.35 26.22 37.06 25.77 L39.27 25.61 C41.71 25.83 44.12 26.85 46 28.74 C50.21 32.94 50.2 39.78 45.99 43.99 C41.77 48.22 34.94 48.22 30.73 44.01 C28.85 42.13 27.81 39.72 27.6 37.28 L27.76 35.07 C28.2 33.37 27.78 31.56 26.58 30.36 C26.39 30.17 26.19 30.02 25.98 29.86 C24.16 28.6 21.71 28.84 19.99 30.31 L19.99 30.31 L19.44 30.86 L19.45 30.86 C19.42 30.89 19.4 30.91 19.38 30.95 L19.36 30.93 L3.26 47.04 C1.62 48.68 1.63 51.34 3.26 52.97 L18.87 68.58 L18.88 68.57 L18.88 68.58 C18.93 68.63 18.98 68.69 19.03 68.74 L19.58 69.29 C21.3 70.78 23.73 71.04 25.54 69.76 C27.2 68.59 27.84 66.51 27.33 64.54 L27.19 62.34 C27.38 59.9 28.42 57.5 30.31 55.61 C34.53 51.4 41.36 51.41 45.57 55.61 C49.78 59.83 49.79 66.66 45.58 70.88 C43.69 72.77 41.29 73.81 38.85 74 L36.65 73.86 C34.68 73.35 32.58 73.98 31.42 75.64 C30.16 77.46 30.42 79.9 31.89 81.61 L32.44 82.15 C32.47 82.18 32.49 82.2 32.52 82.23 L32.52 82.23 L48.2 97.91 C49.84 99.55 52.49 99.56 54.13 97.92 L70.24 81.81 L70.25 81.82 C70.27 81.78 70.29 81.76 70.32 81.73 L70.32 81.73 L70.87 81.18 L70.87 81.18 C72.58 79.71 75.02 79.46 76.85 80.72 C77.06 80.89 77.27 81.05 77.45 81.22 C78.66 82.43 79.08 84.24 78.63 85.95 L78.47 88.15 C78.68 90.59 79.72 93 81.59 94.87 C85.82 99.1 92.64 99.09 96.86 94.86 C101.07 90.65 101.09 83.83 96.86 79.6 C94.99 77.72 92.58 76.7 90.13 76.49 L87.93 76.65 C86.23 77.09 84.43 76.66 83.22 75.45 C83.05 75.27 82.87 75.08 82.72 74.85 C81.44 73.04 81.7 70.6 83.18 68.87 L83.18 68.87 L83.73 68.33 L83.73 68.33 C83.78 68.28 83.85 68.22 83.91 68.18 L83.91 68.18 L83.89 68.16 L99.07 52.98 C100.7 51.35 100.71 48.68 99.07 47.04 L83.39 31.36 L83.39 31.35 C83.36 31.33 83.34 31.31 83.31 31.28 L82.76 30.74 C81.29 29.03 81.03 26.59 82.3 24.76 C83.45 23.11 85.56 22.47 87.52 22.98 L89.71 23.14 C92.17 22.93 94.57 21.88 96.44 20.02 C100.65 15.8 100.66 8.95 96.45 4.74 Z " fill="#0178af" fill-opacity="1.0" id="el6b1454d1" stroke="#ffffff" stroke-opacity="1.0" stroke-width="0" symbology:group="0" symbology:type="ShapedSymbol"/>
        <path d="M137.32 58.8 Q137.32 64.44 132.94 67.76 Q128.57 71.08 122.55 71.08 Q118.35 71.08 110.1 69.16 Q110.04 67.8 110.04 64.83 Q110.04 61.85 110.6 56.52 Q112.4 56.52 114.74 56.88 Q114.74 57.13 114.74 57.44 Q114.74 66.49 122.86 66.49 Q125.54 66.49 127.05 65.35 Q128.57 64.21 128.57 62.07 Q128.57 59.93 127.21 58.25 Q125.85 56.57 123.77 55.52 Q121.69 54.47 119.27 53.11 Q116.85 51.74 114.78 50.28 Q112.71 48.82 111.34 46.28 Q109.97 43.74 109.97 40.4 Q109.97 35 113.91 32.03 Q117.85 29.05 123.43 29.05 Q129 29.05 135.21 30.85 Q135.21 35.49 134.33 41.69 Q132.66 41.69 131.11 41.5 Q130 33.38 124.05 33.38 Q121.57 33.38 119.9 34.56 Q118.22 35.74 118.22 37.79 Q118.22 39.83 119.65 41.47 Q121.07 43.11 123.18 44.14 Q125.29 45.16 127.76 46.5 Q130.24 47.83 132.35 49.23 Q134.46 50.63 135.89 53.11 Q137.32 55.58 137.32 58.8 Z M147.25 85.04 L145.9 85.04 Q145.02 81.93 145.02 79.73 Q145.02 77.54 145.15 76.35 L147.19 76.35 Q149.93 76.35 151.47 75.64 Q153.02 74.93 154.21 73.13 L144.04 48.77 Q143.35 47.02 142.51 46.22 Q141.68 45.41 139.75 45.04 Q139.44 43.74 139.44 42.93 Q139.44 42.13 139.5 41.63 L156.55 41.63 Q156.8 42.57 156.8 45.04 Q154.46 45.04 153.33 45.35 L158.72 64.15 Q159.16 61.97 160.04 59.8 L164.43 49.07 Q164.86 47.9 164.86 47.25 Q164.86 46.6 164.68 46.22 Q164.19 45.35 162.21 45.04 Q161.9 43.74 161.9 42.93 Q161.9 42.13 161.96 41.63 L174.54 41.63 Q174.6 43.36 173.8 45.04 Q172.49 45.1 171 45.6 L156.93 76.04 Q152.83 85.04 147.25 85.04 Z M227.82 50.63 L227.82 66 Q230.3 66.68 231.91 66.68 Q231.91 67.05 231.91 67.95 Q231.91 68.85 231.6 70.21 L214.8 70.21 Q214.74 69.72 214.74 68.86 Q214.74 67.99 215.05 66.68 Q216.66 66.36 217.4 65.62 Q218.15 64.88 218.15 63.02 L218.15 51.86 Q218.15 47.02 214.18 47.02 Q210.65 47.02 208.54 52.61 L208.54 66.07 Q210.02 66.68 212.07 66.68 Q212.07 67.05 212.07 67.95 Q212.07 68.85 211.77 70.21 L195.58 70.21 Q195.52 69.72 195.52 68.86 Q195.52 67.99 195.83 66.68 Q197.44 66.36 198.18 65.62 Q198.93 64.88 198.93 63.02 L198.93 51.86 Q198.93 49.44 197.81 48.23 Q196.69 47.02 194.9 47.02 Q191.3 47.02 189.32 52.61 L189.32 66.07 Q190.8 66.68 192.79 66.68 Q192.79 67.05 192.79 67.92 Q192.79 68.79 192.54 70.21 L175.49 70.21 Q175.49 69.72 175.49 68.76 Q175.49 67.8 175.8 66.68 Q177.72 66.36 178.72 65.59 Q179.71 64.82 179.71 63.02 L179.71 47.02 Q178.79 46.9 177.7 46.9 Q176.61 46.9 175.55 46.96 Q175.68 44.8 176.11 43.55 Q181.75 41.5 188.46 41.13 Q189 44.18 189.19 46.72 Q192.18 40.83 198.93 40.83 Q202.33 40.83 204.79 42.5 Q207.24 44.18 208.1 47.27 Q211.08 40.83 218.15 40.83 Q222.49 40.83 225.15 43.43 Q227.82 46.04 227.82 50.63 Z M247.4 65.82 Q249.07 66.68 251.43 66.68 Q253.79 66.68 255.52 63.98 Q257.25 61.29 257.25 55.77 Q257.25 50.25 255.71 48.18 Q254.16 46.1 252.3 46.1 Q250.44 46.1 249.11 47.4 Q247.77 48.71 247.4 51.05 L247.4 65.82 Z M247.4 44.74 Q250.07 40.83 255.21 40.83 Q260.35 40.83 263.95 44.8 Q267.55 48.77 267.55 55.71 Q267.55 62.65 262.75 66.77 Q257.94 70.9 250.93 70.9 Q246.1 70.9 242.38 67.99 Q240.52 69.91 238.1 70.83 L236.68 69.41 Q237.79 66.3 237.79 62.46 L237.79 31.46 Q237.1 31.35 235.96 31.35 Q234.82 31.35 233.63 31.4 Q233.75 29.11 234.25 27.93 Q240.21 25.82 247.4 25.57 L247.4 44.74 Z M291.38 57.38 Q291.38 45.1 285.74 45.1 Q280.72 45.1 280.72 54.54 Q280.72 55.21 280.72 55.9 Q281.16 66.61 286.49 66.61 Q289.22 66.61 290.3 64.23 Q291.38 61.85 291.38 57.38 Z M297.37 44.65 Q301.68 48.46 301.68 55.86 Q301.68 63.27 297.34 67.08 Q293 70.9 286.06 70.9 Q279.11 70.9 274.8 67.08 Q270.49 63.27 270.49 55.86 Q270.49 48.46 274.83 44.65 Q279.18 40.83 286.12 40.83 Q293.07 40.83 297.37 44.65 Z M321.79 66.68 Q321.79 67.05 321.79 67.92 Q321.79 68.79 321.54 70.21 L304.49 70.21 Q304.49 69.72 304.49 68.76 Q304.49 67.8 304.8 66.68 Q306.72 66.36 307.72 65.59 Q308.71 64.82 308.71 63.02 L308.71 31.46 Q308.02 31.35 306.91 31.35 Q305.8 31.35 304.55 31.4 Q304.68 29.18 305.11 27.93 Q311.07 25.82 318.32 25.57 L318.32 66.07 Q319.8 66.68 321.79 66.68 Z M346.38 57.38 Q346.38 45.1 340.74 45.1 Q335.72 45.1 335.72 54.54 Q335.72 55.21 335.72 55.9 Q336.16 66.61 341.49 66.61 Q344.22 66.61 345.3 64.23 Q346.38 61.85 346.38 57.38 Z M352.37 44.65 Q356.68 48.46 356.68 55.86 Q356.68 63.27 352.34 67.08 Q348 70.9 341.06 70.9 Q334.11 70.9 329.8 67.08 Q325.49 63.27 325.49 55.86 Q325.49 48.46 329.83 44.65 Q334.18 40.83 341.12 40.83 Q348.07 40.83 352.37 44.65 Z M371.15 49.63 Q371.15 57.07 374.55 57.07 Q377.54 57.07 377.47 50.57 Q377.29 44.11 374.07 44.11 Q371.15 44.11 371.15 49.63 Z M381.25 71.4 L369.47 71.4 Q368.72 71.4 367.36 71.27 Q366.32 72.69 366.32 74.36 Q366.32 78.46 374.49 78.46 Q379.02 78.46 381.54 77.04 Q384.05 75.61 384.05 73.75 Q384.05 71.4 381.25 71.4 Z M369.47 64.02 L381.75 64.02 Q389.94 64.02 389.94 70.65 Q389.94 76.54 384.64 81.18 Q379.33 85.83 371.46 85.83 Q366.07 85.83 362.68 83.58 Q359.3 81.32 359.3 77.1 Q359.3 72.88 364.08 70.21 Q361.16 68.47 361.16 64.82 Q361.16 62.65 362.4 60.97 Q363.65 59.3 365.75 58.38 Q360.91 55.65 360.91 50.84 Q360.91 46.04 364.7 43.43 Q368.49 40.83 373.97 40.83 Q379.46 40.83 382.93 42.88 Q386.4 39.9 392.16 39.9 Q392.29 40.4 392.29 41.48 Q392.29 42.57 391.97 44.8 L385.97 45.54 Q387.58 47.65 387.58 50.57 Q387.58 55.08 383.83 57.75 Q380.08 60.41 374.32 60.41 Q371.27 60.41 368.72 59.68 Q367.05 60.54 367.05 62.04 Q367.05 62.9 367.74 63.46 Q368.43 64.02 369.47 64.02 Z M398.25 85.04 L396.9 85.04 Q396.02 81.93 396.02 79.73 Q396.02 77.54 396.15 76.35 L398.19 76.35 Q400.93 76.35 402.47 75.64 Q404.02 74.93 405.21 73.13 L395.04 48.77 Q394.35 47.02 393.51 46.22 Q392.68 45.41 390.75 45.04 Q390.44 43.74 390.44 42.93 Q390.44 42.13 390.5 41.63 L407.55 41.63 Q407.8 42.57 407.8 45.04 Q405.46 45.04 404.33 45.35 L409.72 64.15 Q410.16 61.97 411.04 59.8 L415.43 49.07 Q415.86 47.9 415.86 47.25 Q415.86 46.6 415.68 46.22 Q415.19 45.35 413.21 45.04 Q412.9 43.74 412.9 42.93 Q412.9 42.13 412.96 41.63 L425.54 41.63 Q425.6 43.36 424.8 45.04 Q423.49 45.1 422 45.6 L407.93 76.04 Q403.83 85.04 398.25 85.04 Z" fill="#0178af" fill-opacity="1.0" id="elb8ef0cca" stroke="#ffffff" stroke-opacity="1.0" stroke-width="0" symbology:group="0" symbology:type="Halant-Bold.ttf"/>
    </g>
</svg>
