<svg id="symbologySVG" width="17px" height="16px" xmlns:symbology="http:www.symbologysvg.net" xmlns="http://www.w3.org/2000/svg" xmlns:xlink="http://www.w3.org/1999/xlink" contentScriptType="text/ecmascript" contentStyleType="text/css" preserveAspectRatio="xMidYMid meet" version="1.0" zoomAndPan="magnify">  
	<desc></desc>  <defs id="defs"/>
    <g data-scale="0.17" id="root" transform="scale(0.17) ">        
		<path d="M95.45 4.74 C91.24 0.53 84.39 0.54 80.17 4.75 C78.31 6.62 77.26 9.02 77.05 11.48 L77.21 13.67 C77.72 15.63 77.07 17.73 75.42 18.88 C73.61 20.17 71.16 19.91 69.45 18.43 L68.9 17.87 C68.85 17.82 68.8 17.76 68.75 17.71 L68.75 17.7 L68.74 17.71 L53.13 2.11 C51.5 0.47 48.83 0.47 47.19 2.11 L32.01 17.29 L32.03 17.31 L32.03 17.31 C31.98 17.35 31.91 17.41 31.85 17.45 L31.85 17.45 L31.31 17.99 L31.31 18 C29.83 19.73 29.58 22.18 30.86 23.98 C31 24.21 31.17 24.39 31.36 24.58 C32.56 25.78 34.35 26.22 36.06 25.77 L38.27 25.61 C40.71 25.83 43.12 26.85 45 28.74 C49.21 32.94 49.2 39.78 44.99 43.99 C40.77 48.22 33.94 48.22 29.73 44.01 C27.85 42.13 26.81 39.72 26.6 37.28 L26.76 35.07 C27.2 33.37 26.78 31.56 25.58 30.36 C25.39 30.17 25.19 30.02 24.98 29.86 C23.16 28.6 20.71 28.84 18.99 30.31 L18.99 30.31 L18.44 30.86 L18.45 30.86 C18.42 30.89 18.4 30.91 18.38 30.95 L18.36 30.93 L2.26 47.04 C0.62 48.68 0.63 51.34 2.26 52.97 L17.87 68.58 L17.88 68.57 L17.88 68.58 C17.93 68.63 17.98 68.69 18.03 68.74 L18.58 69.29 C20.3 70.78 22.73 71.04 24.54 69.76 C26.2 68.59 26.84 66.51 26.33 64.54 L26.19 62.34 C26.38 59.9 27.42 57.5 29.31 55.61 C33.53 51.4 40.36 51.41 44.57 55.61 C48.78 59.83 48.79 66.66 44.58 70.88 C42.69 72.77 40.29 73.81 37.85 74 L35.65 73.86 C33.68 73.35 31.58 73.98 30.42 75.64 C29.16 77.46 29.42 79.9 30.89 81.61 L31.44 82.15 C31.47 82.18 31.49 82.2 31.52 82.23 L31.52 82.23 L47.2 97.91 C48.84 99.55 51.49 99.56 53.13 97.92 L69.24 81.81 L69.25 81.82 C69.27 81.78 69.29 81.76 69.32 81.73 L69.32 81.73 L69.87 81.18 L69.87 81.18 C71.58 79.71 74.02 79.46 75.85 80.72 C76.06 80.89 76.27 81.05 76.45 81.22 C77.66 82.43 78.08 84.24 77.63 85.95 L77.47 88.15 C77.68 90.59 78.72 93 80.59 94.87 C84.82 99.1 91.64 99.09 95.86 94.86 C100.07 90.65 100.09 83.83 95.86 79.6 C93.99 77.72 91.58 76.7 89.13 76.49 L86.93 76.65 C85.23 77.09 83.43 76.66 82.22 75.45 C82.05 75.27 81.87 75.08 81.72 74.85 C80.44 73.04 80.7 70.6 82.18 68.87 L82.18 68.87 L82.73 68.33 L82.73 68.33 C82.78 68.28 82.85 68.22 82.91 68.18 L82.91 68.18 L82.89 68.16 L98.07 52.98 C99.7 51.35 99.71 48.68 98.07 47.04 L82.39 31.36 L82.39 31.35 C82.36 31.33 82.34 31.31 82.31 31.28 L81.76 30.74 C80.29 29.03 80.03 26.59 81.3 24.76 C82.45 23.11 84.56 22.47 86.52 22.98 L88.71 23.14 C91.17 22.93 93.57 21.88 95.44 20.02 C99.65 15.8 99.66 8.95 95.45 4.74 Z " fill="#0178af" fill-opacity="1.0" id="elaf451300" stroke="#ffffff" stroke-opacity="1.0" stroke-width="0" symbology:group="0" symbology:type="ShapedSymbol"/>
    </g>
</svg>
